<?xml version="1.0" encoding="UTF-8"?>
<svg xmlns="http://www.w3.org/2000/svg" version="1.1" viewBox="0 0 1000 1000">
  <defs>
    <style>
      .cls-1 {
        fill: #010101;
      }
    </style>
  </defs>
  <!-- Generator: Adobe Illustrator 28.6.0, SVG Export Plug-In . SVG Version: 1.2.0 Build 709)  -->
  <g>
    <g id="Layer_1">
      <path class="cls-1" d="M139.06,578.76c-8.89-9-8.86-23.49.05-32.46l93.22-93.83,18.02-18.04,65.75-66.2,22.44-22.53,145.05-145.91c9.04-9.1,23.77-9.07,32.78.06l144.34,146.27,22.53,22.78,65.42,66.35,18.81,19.06,93.57,94.87c8.88,9.01,8.86,23.49-.06,32.46l-167.72,168.75-34.13,34.35-15.21,15.27c-9.04,9.08-23.75,9.05-32.76-.06l-77.29-78.24c-8.89-9-8.87-23.49.04-32.47l49.65-49.98,76.4-76.81.07-38.13.5-132.64-161.21,162.17-160.96-163.02-.5,132.29-.15,36.14,77.85,78.83,49.38,50.09c8.88,9.01,8.85,23.49-.07,32.46l-76.79,77.24c-9.04,9.1-23.77,9.07-32.78-.06l-18.33-18.59-30.72-31.1-167.17-169.37Z"/>
    </g>
  </g>
</svg>