<svg xmlns="http://www.w3.org/2000/svg" xmlns:xlink="http://www.w3.org/1999/xlink" version="1.1" x="0px" y="0px" viewBox="0 0 100 125" enable-background="new 0 0 100 100" xml:space="preserve"><g><path d="M60.492,29.08c-0.268,0.648-0.895,1.04-1.557,1.04c-0.215,0-0.433-0.041-0.644-0.128c-0.859-0.356-1.268-1.342-0.911-2.201   l3.499-8.449c0.356-0.86,1.341-1.268,2.201-0.912c0.859,0.356,1.268,1.342,0.911,2.201L60.492,29.08z"/><path d="M70.012,41.715c-0.355-0.859,0.053-1.845,0.912-2.201l8.449-3.499c0.857-0.356,1.845,0.052,2.2,0.912   c0.356,0.859-0.052,1.845-0.911,2.201l-8.449,3.499c-0.211,0.087-0.43,0.129-0.645,0.129   C70.908,42.755,70.281,42.364,70.012,41.715z"/><path d="M67.697,34.688c-0.328,0.329-0.76,0.493-1.191,0.493c-0.43,0-0.861-0.165-1.19-0.493c-0.657-0.658-0.657-1.725,0-2.382   l14.124-14.124c0.658-0.658,1.724-0.658,2.382,0c0.657,0.658,0.657,1.725,0,2.382L67.697,34.688z"/><path d="M80.66,60.881c0.859,0.356,1.268,1.342,0.911,2.201c-0.269,0.648-0.896,1.04-1.557,1.04c-0.215,0-0.433-0.042-0.644-0.128   l-8.448-3.501c-0.86-0.356-1.268-1.342-0.911-2.201c0.355-0.86,1.342-1.263,2.201-0.912L80.66,60.881z"/><path d="M71.658,50.002c0-0.93,0.755-1.685,1.686-1.685h19.972c0.931,0,1.685,0.754,1.685,1.685c0,0.931-0.754,1.685-1.685,1.685   H73.344C72.413,51.687,71.658,50.933,71.658,50.002z"/><path d="M58.286,70.015c0.858-0.354,1.845,0.052,2.201,0.911l3.501,8.447c0.355,0.859-0.053,1.846-0.912,2.201   c-0.211,0.087-0.429,0.129-0.645,0.129c-0.66,0-1.287-0.392-1.557-1.04l-3.5-8.448C57.019,71.356,57.427,70.37,58.286,70.015z"/><path d="M67.697,65.315l14.122,14.124c0.657,0.657,0.657,1.724,0,2.382c-0.329,0.329-0.761,0.493-1.19,0.493   c-0.432,0-0.863-0.164-1.191-0.493L65.315,67.697c-0.657-0.658-0.657-1.724,0-2.382C65.974,64.657,67.041,64.657,67.697,65.315z"/><path d="M39.507,70.924c0.355-0.86,1.339-1.27,2.2-0.913c0.86,0.356,1.269,1.342,0.913,2.2l-3.498,8.45   c-0.269,0.649-0.896,1.041-1.558,1.041c-0.214,0-0.433-0.041-0.643-0.128c-0.86-0.356-1.269-1.342-0.913-2.201L39.507,70.924z"/><path d="M29.985,58.286c0.356,0.859-0.051,1.845-0.911,2.2l-8.446,3.503c-0.211,0.087-0.43,0.129-0.645,0.129   c-0.66,0-1.287-0.392-1.557-1.04c-0.356-0.859,0.051-1.844,0.911-2.2l8.447-3.503C28.643,57.019,29.629,57.428,29.985,58.286z"/><path d="M32.305,65.316c0.657-0.658,1.724-0.658,2.382,0s0.658,1.725,0,2.382L20.562,81.819c-0.329,0.329-0.76,0.493-1.19,0.493   c-0.432,0-0.862-0.164-1.191-0.493c-0.658-0.658-0.658-1.725,0-2.382L32.305,65.316z"/><path d="M19.341,39.123c-0.86-0.356-1.269-1.341-0.913-2.201c0.355-0.859,1.34-1.268,2.201-0.913l8.447,3.497   c0.86,0.356,1.269,1.341,0.913,2.201c-0.269,0.649-0.896,1.041-1.558,1.041c-0.215,0-0.433-0.042-0.643-0.128L19.341,39.123z"/><path d="M6.685,48.316l19.973,0.001c0.931,0,1.685,0.754,1.685,1.685c0,0.931-0.754,1.685-1.685,1.685L6.685,51.685   C5.754,51.685,5,50.931,5,50C5,49.07,5.754,48.316,6.685,48.316z"/><path d="M41.714,29.986c-0.211,0.087-0.43,0.129-0.644,0.129c-0.661,0-1.289-0.392-1.557-1.04l-3.501-8.447   c-0.356-0.859,0.052-1.845,0.911-2.201c0.859-0.356,1.845,0.052,2.2,0.911l3.501,8.447C42.981,28.645,42.573,29.63,41.714,29.986z"/><path d="M33.493,35.179c-0.431,0-0.861-0.165-1.19-0.493L18.181,20.562c-0.658-0.658-0.658-1.725,0-2.382s1.724-0.658,2.382,0   l14.122,14.124c0.658,0.658,0.658,1.725,0,2.382C34.355,35.015,33.925,35.179,33.493,35.179z"/><path d="M50.002,5c0.93,0,1.685,0.754,1.685,1.685v25.746c8.96,0.847,15.969,8.388,15.969,17.57   c-0.003,9.179-7.01,16.721-15.969,17.571v25.744c0,0.931-0.755,1.685-1.685,1.685c-0.931,0-1.685-0.754-1.685-1.685V6.685   C48.317,5.754,49.071,5,50.002,5z"/></g></svg>